<svg width="1080" height="1080" viewBox="0 0 1080 1080" fill="none" xmlns="http://www.w3.org/2000/svg">
<path fill-rule="evenodd" clip-rule="evenodd" d="M553.654 105.505C765.012 108.086 971.962 210.419 1039.21 410.791C1108.27 616.575 1022.27 844.401 842.415 965.949C678.853 1076.49 472.219 1016.39 310.393 903.331C135.95 781.455 -31.8835 602.006 30.1762 398.469C94.6474 187.023 332.595 102.806 553.654 105.505Z" fill="#D0E2FF"/>
<g style="mix-blend-mode:multiply">
<path fill-rule="evenodd" clip-rule="evenodd" d="M489.502 12.2633C716.857 3.68611 881.996 206.024 950.201 422.89C1016.07 632.333 979.395 872.684 799.958 999.392C626.338 1121.99 392.147 1067.25 226.807 933.712C86.1389 820.099 75.1777 627.844 124.729 454.032C182.597 251.05 278.416 20.2267 489.502 12.2633Z" fill="#D0E2FF"/>
</g>
<path fill-rule="evenodd" clip-rule="evenodd" d="M531.426 411.316C494.566 411.316 477.613 438.362 470.05 455.299C464.028 468.784 448.163 474.857 434.614 468.864C421.065 462.87 414.963 447.08 420.985 433.596C430.603 412.057 460.9 357.877 531.426 357.877C566.787 357.877 593.139 373.071 610.073 394.045C626.292 414.132 633.443 438.866 633.443 459.41C633.443 501.718 615.658 527.272 596.16 546.37C591.581 550.855 586.92 554.984 582.683 558.691C581.879 559.394 581.096 560.077 580.33 560.746C576.902 563.738 573.818 566.43 570.798 569.221C563.513 575.955 558.355 581.721 554.798 587.984C545.342 604.634 545.358 617.816 545.383 638.78C545.385 639.887 545.386 641.016 545.386 642.169C545.386 656.925 533.367 668.888 518.54 668.888C503.713 668.888 491.693 656.925 491.693 642.169C491.693 640.627 491.684 639.046 491.675 637.427C491.563 617.159 491.418 590.984 508.054 561.689C515.588 548.425 525.37 538.282 534.259 530.065C537.897 526.703 541.679 523.403 545.13 520.392C545.847 519.767 546.549 519.154 547.232 518.556C551.371 514.935 555.067 511.643 558.497 508.283C571.04 495.997 579.75 483.366 579.75 459.41C579.75 450.029 576.162 437.356 568.219 427.518C560.991 418.566 549.758 411.316 531.426 411.316Z" fill="#0050D8"/>
<path fill-rule="evenodd" clip-rule="evenodd" d="M349.247 268.105C396.7 237.114 459.031 218.411 539.854 218.411C620.236 218.411 682.213 235.311 729.561 263.142C776.999 291.026 808.15 328.946 828.253 368.352C867.92 446.106 864.769 529.905 862.208 558.323C849.298 701.521 757.875 763.749 704.368 780.738C670.742 791.414 630.252 794.311 594.708 789.303C576.841 786.785 559.233 782.134 543.901 774.742C528.702 767.413 514.112 756.578 504.936 740.846C497.483 728.068 501.799 711.666 514.575 704.212C527.352 696.758 543.751 701.074 551.204 713.853C553.277 717.407 557.95 722.042 567.163 726.484C576.243 730.863 588.198 734.284 602.181 736.254C630.337 740.222 662.696 737.762 688.16 729.676C724.642 718.093 798.2 671.748 808.859 553.512C811.113 528.513 813.319 456.952 780.54 392.7C764.421 361.103 739.898 331.358 702.42 309.329C664.851 287.246 612.669 271.983 539.854 271.983C467.482 271.983 415.777 288.638 378.534 312.961C341.27 337.297 316.623 370.528 300.383 406.706C267.428 480.122 270.115 563.389 273.011 598.73C279.285 675.28 307.075 735.806 349.289 778.569C391.509 821.336 449.712 847.917 519.631 853.877C581.455 859.147 626.691 856.446 665.196 848.38C703.718 840.31 736.798 826.612 774.545 808.261C787.848 801.793 803.874 807.336 810.341 820.641C816.808 833.946 811.266 849.974 797.963 856.442C758.575 875.592 720.95 891.435 676.178 900.814C631.389 910.197 580.744 912.853 515.083 907.256C433.949 900.34 363.35 869.063 311.173 816.208C258.99 763.348 226.787 690.488 219.625 603.107C216.551 565.589 212.81 470.995 251.517 384.765C271.109 341.12 301.816 299.082 349.247 268.105Z" fill="#0050D8"/>
</svg>
